<?xml version="1.0" standalone="no"?>
<!DOCTYPE svg PUBLIC "-//W3C//DTD SVG 20010904//EN"
 "http://www.w3.org/TR/2001/REC-SVG-20010904/DTD/svg10.dtd">
<svg version="1.0" xmlns="http://www.w3.org/2000/svg"
 width="1080.000000pt" height="1080.000000pt" viewBox="0 0 1080.000000 1080.000000"
 preserveAspectRatio="xMidYMid meet">
<metadata>
Created by potrace 1.14, written by Peter Selinger 2001-2017
</metadata>
<g transform="translate(0.000000,1080.000000) scale(0.100000,-0.100000)"
fill="#000000" stroke="none">
<path d="M6021 9221 c-19 -12 -6 -63 24 -91 l25 -23 36 19 c45 24 68 49 59 64
-19 30 -113 50 -144 31z"/>
<path d="M6377 9212 c-32 -20 -30 -38 6 -35 22 1 25 -2 23 -25 -3 -23 -10 -28
-44 -35 -22 -4 -46 -14 -52 -22 -11 -13 -4 -15 46 -15 33 0 84 -3 114 -6 l55
-6 -33 29 -34 29 26 12 c31 14 35 51 8 75 -24 22 -79 21 -115 -1z"/>
<path d="M6025 9086 c-22 -6 -40 -15 -40 -20 0 -9 190 -15 205 -6 10 6 -86 41
-111 39 -8 0 -32 -6 -54 -13z"/>
<path d="M4980 9065 c0 -2 13 -11 30 -20 30 -15 57 -52 46 -63 -3 -3 -16 -6
-28 -7 -12 -1 -24 -7 -26 -14 -2 -6 2 -10 8 -9 7 2 15 -3 17 -9 3 -8 -4 -13
-17 -13 -13 0 -20 -5 -17 -12 3 -10 39 -12 148 -9 79 2 146 5 149 8 7 6 -18
20 -100 54 -41 17 -105 46 -142 65 -38 19 -68 32 -68 29z"/>
<path d="M6244 9056 c-29 -13 -51 -33 -43 -40 2 -2 24 10 49 25 47 31 45 37
-6 15z"/>
<path d="M6155 8919 c-12 -19 5 -23 22 -6 16 16 16 17 1 17 -9 0 -20 -5 -23
-11z"/>
<path d="M4946 8904 c-4 -9 1 -14 14 -14 23 0 27 15 6 23 -8 3 -17 -1 -20 -9z"/>
<path d="M6108 8893 c7 -3 16 -2 19 1 4 3 -2 6 -13 5 -11 0 -14 -3 -6 -6z"/>
<path d="M4850 8804 c-84 -8 -180 -26 -186 -35 -3 -5 77 -9 194 -9 213 0 401
-14 442 -34 62 -29 -17 -140 -205 -285 -60 -47 -162 -137 -225 -200 -63 -62
-129 -120 -147 -127 -43 -19 -363 -20 -363 -2 0 7 12 25 28 41 21 23 15 21
-28 -12 -30 -22 -58 -41 -62 -41 -4 0 -47 -39 -96 -87 -49 -49 -185 -178 -302
-288 -118 -110 -268 -252 -334 -316 -67 -63 -179 -167 -251 -231 -71 -64 -145
-132 -164 -151 l-33 -35 4 -102 c3 -89 6 -104 25 -118 11 -10 32 -37 44 -62
23 -44 24 -55 29 -340 l5 -296 34 -69 c44 -90 103 -145 187 -179 101 -41 145
-76 228 -185 146 -192 223 -330 281 -504 42 -126 61 -235 77 -442 l13 -160
175 -7 c221 -8 1361 -17 1456 -11 l72 5 22 64 c15 47 20 82 18 130 -3 64 -3
65 -28 59 -63 -16 -147 -17 -183 -2 -52 22 -67 58 -42 103 31 58 100 81 185
63 38 -8 56 -19 75 -43 48 -63 61 -205 26 -294 -12 -29 -21 -55 -21 -57 0 -3
22 3 49 14 48 18 49 18 54 0 8 -29 22 -23 67 28 l42 48 -4 155 c-2 85 -8 163
-12 172 -6 13 -3 15 12 11 18 -4 21 -15 24 -101 3 -88 6 -101 32 -140 l30 -44
17 23 c16 22 16 25 -7 78 -20 47 -21 53 -5 34 22 -27 40 -29 67 -8 14 11 15
14 4 15 -13 0 -13 1 0 10 10 7 12 12 4 18 -6 4 -13 21 -17 37 -3 17 -9 39 -12
50 -6 18 -5 18 5 2 6 -9 16 -15 21 -11 19 12 69 125 69 157 0 19 6 47 14 63
57 117 169 430 195 542 l16 73 73 25 c128 43 199 101 228 186 13 40 15 103 12
432 -2 218 1 382 6 379 5 -3 6 12 2 33 -10 64 -25 297 -20 306 3 4 45 8 95 8
78 0 89 2 88 18 0 10 -3 12 -6 5 -5 -14 -24 -18 -22 -5 1 4 1 15 0 25 -1 24
-21 11 -21 -14 0 -31 -25 -22 -27 11 -2 24 2 30 18 30 11 0 18 4 14 10 -3 5 3
18 15 30 26 26 11 27 -17 1 -22 -21 -46 -11 -36 14 5 15 -33 9 -54 -8 -9 -6
-13 -6 -13 2 0 6 -5 11 -11 11 -6 0 -9 -6 -6 -13 2 -7 1 -30 -3 -52 -7 -37 -8
-35 -9 23 0 35 4 72 9 83 8 13 7 19 0 19 -6 0 -4 7 4 16 21 20 20 25 -1 17
-14 -5 -15 -3 -7 7 9 9 7 17 -8 32 -17 17 -19 28 -14 72 12 86 10 95 -40 169
-27 40 -50 75 -52 80 -2 4 280 7 627 7 355 0 631 4 631 9 0 30 -33 32 -664 31
l-637 0 -48 102 c-51 111 -95 184 -172 289 -27 37 -49 72 -49 78 0 31 141 2
283 -59 51 -22 101 -41 112 -43 26 -3 47 -16 41 -25 -2 -4 16 -7 41 -8 l45 -1
-28 15 c-64 34 -311 143 -344 152 -19 5 -54 10 -78 12 -24 1 -45 5 -48 9 -2 4
0 29 6 55 6 26 8 49 4 53 -10 10 -54 -49 -61 -80 -8 -41 -18 -44 -61 -18 -48
30 -243 166 -292 204 -47 38 -130 88 -150 91 -8 1 -105 36 -215 79 -285 110
-353 126 -550 130 -88 1 -180 1 -205 -1z m825 -418 c13 -30 29 -57 35 -61 26
-16 60 -86 59 -122 0 -37 -1 -37 -12 -13 -42 94 -50 110 -54 106 -2 -2 6 -72
18 -155 20 -140 20 -185 0 -153 -4 8 -16 67 -25 132 -9 65 -25 151 -36 192
-19 72 -25 128 -14 128 3 0 16 -24 29 -54z m686 -47 c-5 -13 -10 -19 -10 -12
-1 15 10 45 15 40 3 -2 0 -15 -5 -28z m-1186 -136 c-10 -40 -17 -20 -9 23 5
24 9 32 12 21 2 -10 1 -30 -3 -44z m475 -498 c18 -22 3 -35 -39 -35 -105 0
-301 -85 -385 -167 -90 -87 -172 -232 -191 -335 -12 -62 -29 -46 -21 20 20
174 134 349 290 441 122 73 314 115 346 76z m833 -92 c-36 -14 -3 -20 85 -16
69 3 93 1 82 -6 -8 -6 -23 -11 -32 -11 -13 0 -18 -8 -18 -26 0 -26 -2 -26 -47
-21 -33 3 -52 12 -65 28 -12 16 -16 18 -12 7 9 -25 -13 -22 -26 3 -15 28 -6
49 22 48 13 0 17 -3 11 -6z m206 -44 c-25 -36 -46 -46 -61 -31 -8 8 -4 14 16
21 14 6 29 18 32 26 4 8 13 15 21 15 11 0 9 -7 -8 -31z m51 5 c0 -11 -23 -49
-34 -56 -29 -20 -34 -5 -9 27 26 32 43 44 43 29z m-627 -84 c6 -25 -22 -43
-61 -38 -23 2 -27 8 -27 33 0 25 5 31 30 36 34 6 50 -3 58 -31z m307 -3 c0 -7
-9 -27 -20 -44 -20 -34 -47 -42 -68 -21 -21 21 -14 36 13 30 14 -2 25 -1 24 4
-1 5 1 16 5 24 8 19 46 24 46 7z m-824 -213 c44 -29 83 -92 96 -155 l12 -59
165 -2 166 -3 0 -105 0 -105 -140 0 -140 -1 -3 -327 -2 -327 -110 0 -110 0 0
325 0 325 -112 2 c-62 0 -120 1 -128 2 -12 1 -16 21 -18 109 l-3 107 202 0
202 0 -7 43 c-14 91 -83 177 -142 177 -26 0 -74 -52 -74 -80 0 -10 -4 -22 -10
-25 -13 -8 -13 20 0 67 17 58 92 74 156 32z m-1321 -244 c108 -50 200 -155
236 -270 39 -123 26 -298 -31 -410 -34 -66 -68 -100 -136 -134 l-52 -26 -271
0 -271 0 0 335 0 335 -66 0 -66 0 4 90 c2 64 7 93 17 99 7 5 145 7 305 4 256
-4 295 -6 331 -23z m728 -47 c16 -52 197 -545 253 -686 18 -48 34 -89 34 -92
0 -3 -38 -5 -84 -5 l-85 0 -16 55 -16 56 -107 -3 -107 -3 -14 -52 -14 -53 -90
0 c-81 0 -88 2 -82 18 4 9 58 154 120 322 62 168 126 339 142 380 17 41 33 83
36 93 10 26 15 21 30 -30z m1326 -86 c53 -128 208 -551 229 -625 11 -40 17
-73 14 -73 -24 -5 -143 -4 -151 0 -5 3 -15 29 -23 56 l-14 50 -101 3 -102 3
-16 -56 -16 -55 -85 0 c-46 0 -84 3 -84 7 0 16 246 665 277 731 8 17 21 32 28
32 7 0 27 -33 44 -73z m-169 -823 c16 -32 16 -49 5 -601 l-7 -331 -43 -4 -42
-3 1 362 c0 200 4 363 9 363 4 0 7 -5 7 -11 0 -21 34 -3 41 21 15 53 7 180
-11 180 -4 0 -13 -20 -20 -45 -18 -65 -27 -63 -22 3 3 39 11 64 25 80 25 27
37 24 57 -14z m-40 -136 c0 -23 -3 -29 -9 -19 -8 12 -4 51 5 51 2 0 4 -15 4
-32z m-183 -768 c19 -11 35 -31 39 -47 3 -15 10 -43 15 -62 5 -19 7 -36 6 -37
-5 -5 -23 12 -51 49 -40 54 -81 77 -139 77 -45 0 -50 -2 -60 -30 -6 -16 -15
-30 -19 -30 -23 0 17 67 50 84 40 22 120 20 159 -4z m-71 -76 c27 -13 61 -35
74 -49 21 -23 18 -22 -46 10 -38 19 -80 35 -94 35 -32 0 -55 15 -46 29 9 14
47 6 112 -25z m-18 -65 c56 -29 111 -63 122 -77 30 -37 24 -45 -8 -12 -16 15
-51 35 -79 43 -28 8 -65 23 -83 32 -21 11 -36 13 -42 7 -6 -6 7 -16 39 -27
120 -42 138 -51 160 -84 38 -57 46 -103 28 -166 -9 -30 -17 -55 -19 -55 -1 0
0 29 2 64 8 118 -31 175 -117 177 -72 1 -98 17 -31 19 l55 1 -40 13 c-52 16
-87 35 -102 55 -16 21 -16 61 -1 61 7 0 59 -23 116 -51z m-88 -323 c0 -3 -4
-8 -10 -11 -5 -3 -10 -1 -10 4 0 6 5 11 10 11 6 0 10 -2 10 -4z m-1410 -106
c0 -16 -7 -20 -34 -20 -39 0 -96 18 -96 31 0 5 29 9 65 9 58 0 65 -2 65 -20z"/>
<path d="M3960 6605 l0 -235 90 0 c136 0 191 29 236 125 18 38 24 67 24 123 0
81 -17 132 -57 175 -36 36 -79 47 -195 47 l-98 0 0 -235z"/>
<path d="M4950 6533 c-12 -32 -22 -69 -23 -83 -2 -24 1 -25 62 -28 l64 -3 -7
32 c-9 45 -53 139 -65 139 -5 0 -19 -26 -31 -57z"/>
<path d="M6262 6583 c-14 -27 -55 -154 -51 -157 7 -7 139 -17 139 -12 0 10
-72 186 -76 186 -2 0 -7 -8 -12 -17z"/>
<path d="M6090 5766 c0 -17 27 -29 35 -16 4 6 3 15 0 20 -9 15 -35 12 -35 -4z"/>
<path d="M4551 8708 c0 -31 1 -32 11 -10 6 12 16 22 22 22 12 0 -14 20 -26 20
-5 0 -8 -15 -7 -32z"/>
<path d="M7248 8721 c-47 -10 -114 -54 -123 -81 -6 -20 -10 -20 -505 -15 -490
5 -543 2 -499 -26 8 -5 150 -9 317 -9 l303 0 59 -30 c70 -35 79 -33 18 4 l-43
26 110 -4 c61 -2 130 -5 155 -5 l46 -1 1 -55 c1 -40 9 -68 27 -99 63 -108 203
-168 277 -118 50 33 117 122 130 172 l12 49 36 -19 c54 -27 100 -37 275 -60
143 -19 237 -42 332 -81 30 -12 35 -10 132 55 96 64 124 98 107 126 -3 5 -1
11 5 15 5 3 10 17 10 31 l0 24 -456 0 -455 0 -27 32 c-46 55 -157 86 -244 69z
m132 -395 c0 -3 -4 -8 -10 -11 -5 -3 -10 -1 -10 4 0 6 5 11 10 11 6 0 10 -2
10 -4z"/>
<path d="M5861 8702 c-5 -9 -12 -34 -16 -55 -9 -45 8 -50 24 -7 5 17 15 30 20
30 7 0 7 -8 1 -26 -15 -37 -13 -42 20 -59 34 -18 40 -18 40 -5 0 6 -7 10 -15
10 -18 0 -18 -2 0 51 17 48 13 74 -11 65 -8 -3 -24 -1 -34 4 -15 8 -21 6 -29
-8z"/>
<path d="M4390 8619 c-196 -4 -254 -9 -290 -23 -62 -23 -120 -59 -151 -93 -29
-31 -54 -96 -45 -118 4 -12 -7 -15 -58 -15 -70 0 -83 -7 -168 -89 -34 -32 -44
-47 -35 -53 6 -4 189 -8 405 -8 215 0 392 -4 392 -8 0 -4 -6 -14 -12 -21 -7
-8 2 -3 20 10 31 22 46 24 177 29 140 5 145 6 185 35 23 17 50 44 60 60 l19
30 -150 1 c-82 0 -151 3 -154 6 -3 3 1 31 8 64 l14 59 204 5 c228 6 227 5 314
84 l50 45 -270 3 c-148 2 -380 0 -515 -3z m108 -121 c17 -17 15 -73 -3 -108
l-16 -30 -182 -2 c-226 -1 -239 0 -254 20 -19 24 -16 76 6 96 32 29 70 34 257
35 128 1 183 -2 192 -11z"/>
<path d="M6120 8569 c-19 -4 82 -6 225 -7 143 0 253 2 245 4 -29 6 -435 9
-470 3z"/>
<path d="M3770 8480 c-30 -16 -51 -29 -47 -30 10 0 107 49 107 55 0 7 1 7 -60
-25z"/>
<path d="M6920 8496 c0 -3 9 -10 20 -16 11 -6 20 -8 20 -6 0 3 -9 10 -20 16
-11 6 -20 8 -20 6z"/>
<path d="M3448 8305 c-8 -19 -13 -35 -10 -35 7 0 82 51 82 55 0 2 -9 1 -21 -2
-12 -3 -24 -1 -28 5 -4 7 -13 -2 -23 -23z"/>
<path d="M7523 8133 c14 -23 -112 -52 -233 -54 -36 -1 -76 -4 -90 -8 l-25 -8
30 -6 c145 -29 355 -7 329 35 -3 4 -2 8 3 8 4 0 78 2 163 4 245 7 345 -14 430
-90 l41 -37 72 33 c40 18 101 43 137 55 49 17 60 25 47 30 -28 11 -83 -1 -154
-35 -78 -36 -87 -37 -127 -6 -17 13 -51 34 -76 47 -43 23 -53 24 -280 26 -129
1 -244 5 -254 9 -13 5 -17 4 -13 -3z"/>
<path d="M3459 8041 c-33 -33 -59 -66 -59 -73 0 -10 65 -13 323 -11 177 1 327
2 334 2 9 1 123 91 165 129 4 4 -153 8 -349 10 l-356 3 -58 -60z"/>
<path d="M2760 7993 c0 -21 -3 -47 -6 -59 -5 -20 -2 -21 121 -23 101 -1 132 1
151 14 13 8 24 22 24 30 0 12 -17 15 -92 14 -51 0 -111 -4 -133 -8 -31 -7 -15
-9 73 -10 67 -1 112 -5 112 -11 0 -6 -43 -10 -109 -10 -120 0 -143 9 -121 50
12 23 7 50 -10 50 -5 0 -10 -17 -10 -37z"/>
<path d="M3332 7833 c-26 -5 -43 -29 -70 -98 l-20 -50 243 2 c182 1 249 4 268
15 20 10 147 124 147 131 0 4 -547 4 -568 0z"/>
<path d="M7920 7772 c0 -5 17 -16 38 -26 32 -16 67 -18 252 -19 l215 -1 -155
-6 -155 -6 168 -2 167 -2 0 29 c0 17 -6 31 -16 35 -24 9 -514 7 -514 -2z"/>
<path d="M3244 7560 c-14 -6 -29 -31 -46 -77 l-26 -68 116 -7 c106 -7 118 -6
151 13 36 21 169 130 170 139 1 9 -343 8 -365 0z"/>
<path d="M2965 7515 c-298 -47 -477 -165 -726 -475 -91 -114 -206 -286 -248
-373 -46 -93 -72 -206 -74 -322 -2 -103 20 -249 33 -224 14 26 21 71 11 65
-29 -18 -34 217 -7 329 32 134 132 304 302 515 208 258 373 382 586 440 75 20
307 55 314 47 3 -2 -51 -33 -118 -68 -140 -72 -205 -129 -255 -224 -45 -87
-63 -167 -63 -285 0 -131 42 -322 65 -298 4 3 2 15 -4 26 -18 34 -41 191 -41
281 0 157 39 259 141 366 53 55 87 81 161 118 52 27 107 59 124 72 l29 24 -75
0 c-41 -1 -111 -7 -155 -14z"/>
<path d="M7962 7429 c-57 -29 -97 -119 -90 -200 8 -76 38 -102 124 -107 57 -4
70 -2 81 14 12 16 13 16 13 1 0 -14 10 -17 59 -17 32 0 72 5 90 11 l31 11 0
96 c0 67 -5 106 -15 126 -8 15 -15 30 -15 32 0 2 54 4 120 4 l121 0 -24 -42
c-45 -78 -42 -177 5 -228 17 -19 31 -20 184 -20 99 0 173 4 186 11 28 15 48
69 48 129 0 54 -10 81 -43 118 -11 12 -17 22 -13 22 4 0 21 -14 37 -31 16 -18
33 -29 36 -25 9 8 -64 84 -99 102 -23 12 -96 14 -412 13 -362 -1 -387 -2 -424
-20z"/>
<path d="M7354 7422 c-77 -36 -112 -109 -99 -207 5 -41 14 -65 30 -81 23 -23
29 -24 183 -24 178 0 178 0 202 74 15 48 8 141 -14 184 -25 48 -67 65 -171 69
-73 3 -98 0 -131 -15z"/>
<path d="M6805 7290 c3 -5 8 -10 11 -10 2 0 4 5 4 10 0 6 -5 10 -11 10 -5 0
-7 -4 -4 -10z"/>
<path d="M3176 7259 c-19 -23 -26 -42 -26 -75 0 -24 4 -44 8 -44 8 0 107 100
131 133 12 16 9 17 -37 17 -44 0 -54 -4 -76 -31z"/>
<path d="M6994 7189 c-4 -13 -7 -31 -6 -39 3 -13 2 -13 -7 0 -11 16 -27 7 -16
-9 11 -18 85 -11 85 9 0 4 -11 19 -24 35 l-24 28 -8 -24z"/>
<path d="M7075 6936 c-17 -7 -47 -34 -68 -59 -21 -26 -58 -61 -83 -78 -28 -21
-41 -36 -35 -42 15 -15 72 26 130 92 36 42 63 63 89 71 23 6 246 10 592 11
305 1 623 5 705 9 89 4 -147 7 -575 8 -578 1 -731 -1 -755 -12z"/>
<path d="M9096 6778 c-3 -13 -6 -34 -6 -48 l0 -25 -992 -2 c-793 -2 -993 -5
-1000 -15 -4 -7 -8 -41 -8 -75 0 -51 3 -61 15 -57 9 4 15 0 15 -10 0 -9 5 -16
10 -16 6 0 10 32 10 75 l0 74 703 3 c386 1 727 2 757 2 30 0 154 -1 274 -3
192 -2 220 0 228 13 5 9 7 20 3 25 -3 5 0 21 7 36 8 18 8 29 1 36 -7 7 -12 3
-17 -13z"/>
<path d="M2923 6755 c-18 -8 -33 -17 -33 -20 0 -3 5 -3 11 0 5 4 20 9 32 11
12 2 34 6 48 10 42 10 113 -27 145 -75 29 -44 46 -141 25 -141 -6 0 -30 17
-53 38 l-42 37 23 -33 c13 -18 34 -40 47 -49 42 -27 25 -70 -49 -124 -47 -34
-83 -37 -136 -9 -70 35 -127 128 -88 143 6 3 4 6 -7 6 -10 1 -25 9 -32 19 -11
14 -13 14 -14 2 -1 -90 125 -210 221 -210 33 0 107 69 135 125 22 45 25 64 20
100 -10 76 -52 142 -108 171 -34 18 -103 17 -145 -1z"/>
<path d="M8710 6740 c0 -7 338 -20 349 -13 12 8 -19 11 -176 16 -95 3 -173 2
-173 -3z"/>
<path d="M2550 6721 c0 -9 48 -33 173 -87 42 -18 77 -29 77 -23 0 5 -8 12 -17
15 -10 3 -30 12 -44 20 -59 31 -189 83 -189 75z"/>
<path d="M2980 6695 c7 -9 15 -13 17 -11 7 7 -7 26 -19 26 -6 0 -6 -6 2 -15z"/>
<path d="M7115 6403 c-25 -52 -17 -103 15 -103 11 0 22 5 26 11 5 9 131 10
488 6 265 -4 490 -3 501 2 l20 8 -20 6 c-11 3 -239 9 -507 13 -423 6 -488 9
-493 22 -3 8 -2 19 3 24 10 10 695 11 1059 2 l263 -7 0 21 0 22 -670 2 -670 3
-15 -32z"/>
<path d="M7117 6181 c-23 -39 -22 -92 4 -125 l20 -26 680 0 c452 0 679 3 679
10 0 7 -149 9 -447 6 -247 -2 -548 -2 -670 1 l-223 6 0 58 0 57 123 -3 c67 -2
337 -7 600 -10 l479 -6 -4 23 -3 23 -285 6 c-157 3 -431 7 -610 8 l-326 1 -17
-29z"/>
<path d="M2505 5973 c14 -27 39 -64 56 -83 19 -23 12 -6 -22 48 -56 90 -75
110 -34 35z"/>
<path d="M7498 5979 c-179 -4 -331 -10 -337 -13 -6 -4 -11 -14 -11 -23 0 -8
-11 -28 -25 -45 -34 -40 -34 -85 1 -94 36 -9 44 5 32 52 -20 73 -28 70 249 77
136 4 334 7 439 7 154 0 194 3 203 14 10 12 8 17 -8 25 -21 12 -37 12 -543 0z"/>
<path d="M8440 5870 c-85 -4 -319 -9 -520 -10 -551 -4 -734 -11 -738 -30 -2
-14 62 -16 608 -15 463 1 613 4 622 13 8 8 45 12 104 12 118 0 159 8 143 26
-6 8 -23 13 -38 12 -14 -1 -96 -5 -181 -8z"/>
<path d="M2299 5853 c-13 -16 -12 -17 4 -4 9 7 17 15 17 17 0 8 -8 3 -21 -13z"/>
<path d="M2665 5740 c43 -63 87 -124 97 -135 11 -11 -17 34 -62 100 -45 66
-89 127 -98 135 -8 8 20 -37 63 -100z"/>
<path d="M2270 5815 c-7 -9 -11 -17 -9 -20 3 -2 10 5 17 15 14 24 10 26 -8 5z"/>
<path d="M2106 5776 c-56 -21 -87 -47 -113 -92 -44 -77 -39 -161 12 -230 13
-17 25 -44 28 -60 l4 -29 2 28 c0 17 7 27 16 27 10 0 2 12 -20 31 -61 54 -71
157 -22 231 24 37 116 88 156 88 47 0 128 -46 160 -91 24 -32 31 -52 31 -89 0
-91 -73 -191 -153 -210 l-32 -8 33 -1 c73 -2 159 74 182 161 40 148 -136 299
-284 244z"/>
<path d="M7230 5723 c1 -28 27 -30 455 -37 242 -3 594 -9 783 -13 314 -6 342
-5 342 10 0 15 -16 17 -137 17 -76 0 -223 5 -328 10 -267 13 -1115 23 -1115
13z"/>
<path d="M3657 5589 c4 -13 8 -18 11 -10 2 7 -1 18 -6 23 -8 8 -9 4 -5 -13z"/>
<path d="M7257 5593 c-4 -3 -7 -13 -7 -21 0 -23 1207 -11 1260 12 32 14 -21
15 -606 16 -352 0 -644 -3 -647 -7z"/>
<path d="M3673 5515 c6 -35 30 -247 56 -490 5 -44 9 -64 10 -45 3 90 -50 555
-65 569 -4 3 -4 -12 -1 -34z"/>
<path d="M7110 5535 c0 -3 5 -15 11 -26 7 -14 7 -24 1 -32 -7 -8 -6 -18 2 -30
12 -16 63 -17 785 -20 564 -1 771 1 771 9 0 18 -167 24 -868 30 l-644 7 6 28
c4 24 2 29 -13 29 -11 0 -26 3 -35 6 -9 3 -16 3 -16 -1z"/>
<path d="M3459 5423 l-24 -28 28 24 c25 23 32 31 24 31 -2 0 -14 -12 -28 -27z"/>
<path d="M2130 5390 c8 -5 22 -9 30 -9 10 0 8 3 -5 9 -27 12 -43 12 -25 0z"/>
<path d="M3049 5342 c-32 -26 -104 -85 -160 -132 -149 -121 -259 -221 -254
-230 3 -4 26 12 52 36 27 25 90 79 142 122 52 42 135 110 184 151 l91 74 27
-33 c28 -33 30 -54 5 -44 -8 3 -22 -3 -32 -13 -11 -11 -52 -48 -91 -82 -40
-35 -73 -71 -73 -79 0 -8 37 19 83 60 113 103 119 106 168 74 21 -15 39 -24
39 -21 0 3 -21 32 -47 63 -27 32 -55 67 -63 79 l-15 22 -56 -47z"/>
<path d="M8468 5373 c6 -2 18 -2 25 0 6 3 1 5 -13 5 -14 0 -19 -2 -12 -5z"/>
<path d="M7276 5337 c-15 -11 -16 -15 -5 -18 8 -3 211 -3 451 -1 348 3 441 7
455 18 27 20 -874 21 -901 1z"/>
<path d="M7136 5268 c-5 -16 -6 -35 -2 -43 3 -8 1 -15 -4 -15 -6 0 -10 -14
-10 -30 0 -27 2 -30 19 -20 22 11 818 12 1103 1 120 -4 172 -3 183 6 13 9 14
13 3 20 -7 4 -296 13 -643 18 l-630 10 -6 40 c-5 39 -6 39 -13 13z"/>
<path d="M3036 5159 l-81 -82 70 60 c77 67 112 103 100 103 -4 0 -44 -37 -89
-81z"/>
<path d="M7175 5050 c51 -8 322 -13 314 -6 -2 2 -85 6 -184 9 -111 3 -161 2
-130 -3z"/>
<path d="M7518 5043 c6 -2 18 -2 25 0 6 3 1 5 -13 5 -14 0 -19 -2 -12 -5z"/>
<path d="M7805 5043 c11 -3 39 -11 63 -19 55 -18 942 -21 942 -3 0 7 -137 10
-462 8 -337 -2 -471 1 -491 9 -16 7 -38 11 -50 11 -20 -1 -20 -2 -2 -6z"/>
<path d="M5678 4905 c50 -12 82 -32 124 -80 21 -24 23 -14 4 23 -25 48 -69 72
-128 71 l-53 -1 53 -13z"/>
<path d="M5603 4873 c-12 -2 -27 -11 -34 -19 -21 -26 20 -56 83 -62 53 -4 108
10 108 27 0 27 -106 64 -157 54z"/>
<path d="M6292 4836 c7 -8 15 -12 17 -11 5 6 -10 25 -20 25 -5 0 -4 -6 3 -14z"/>
<path d="M6209 4818 c6 -7 22 -26 36 -43 l26 -30 -21 43 c-11 23 -27 42 -36
42 -10 0 -12 -4 -5 -12z"/>
<path d="M2950 4683 c-131 -133 -246 -254 -322 -339 -29 -33 -45 -42 -82 -47
-67 -10 -157 -58 -181 -99 -24 -41 -31 -177 -41 -898 -6 -457 -5 -511 10 -562
30 -105 101 -160 221 -173 82 -9 356 11 435 31 329 85 618 381 704 719 21 84
23 106 14 140 -6 22 -10 59 -9 83 2 59 -63 303 -96 365 -40 72 -165 194 -251
245 -157 92 -312 134 -562 154 -80 6 -149 14 -153 18 -8 7 87 111 368 407 l80
84 134 -171 c73 -94 136 -169 139 -166 2 3 -11 24 -29 48 -49 63 -240 298
-242 298 -1 0 -63 -62 -137 -137z m-7 -758 c37 -8 89 -25 116 -39 43 -21 52
-23 69 -10 18 12 20 11 26 -16 3 -18 12 -30 21 -30 9 0 42 -26 74 -57 70 -69
100 -140 108 -254 9 -129 38 -119 -347 -119 -305 0 -329 1 -333 18 -3 9 -4
120 -3 245 l2 228 31 19 c18 10 53 21 80 23 26 2 57 4 68 5 11 1 50 -5 88 -13z
m730 -343 c22 -20 22 -42 -1 -42 -25 0 -42 19 -42 48 0 24 9 23 43 -6z m-605
-506 c9 -10 -259 -117 -309 -123 -40 -6 -40 -5 -54 64 -5 24 -2 36 13 51 18
18 32 19 183 16 89 -3 164 -6 167 -8z"/>
<path d="M6252 4674 c-24 -19 -49 -31 -55 -27 -6 4 -1 -8 12 -25 24 -35 39
-44 19 -13 -10 17 -8 23 13 41 13 11 36 27 52 35 29 17 35 25 15 24 -7 0 -33
-16 -56 -35z"/>
<path d="M6154 4675 c-7 -28 10 -78 34 -97 10 -9 8 0 -7 29 -25 50 -27 67 -6
59 13 -4 14 -2 5 14 -14 26 -18 25 -26 -5z"/>
<path d="M2152 4602 c-52 -47 -62 -71 -42 -102 8 -11 9 -8 4 13 -6 25 0 36 47
83 66 66 62 69 -9 6z"/>
<path d="M6305 4616 c10 -14 19 -26 22 -26 7 0 -17 39 -28 46 -6 3 -3 -5 6
-20z"/>
<path d="M3443 4603 c-9 -16 -22 -35 -27 -43 -10 -13 -9 -13 7 -1 18 14 52 71
42 71 -2 0 -12 -12 -22 -27z"/>
<path d="M2307 4462 c62 -59 127 -116 145 -126 27 -15 25 -11 -12 20 -25 21
-86 78 -137 126 -50 49 -95 88 -100 87 -4 0 43 -48 104 -107z"/>
<path d="M6417 4518 c-3 -18 -2 -64 2 -103 l8 -70 2 103 c1 105 -3 127 -12 70z"/>
<path d="M6317 4462 c19 -36 43 -61 43 -45 0 5 -14 24 -31 43 l-30 35 18 -33z"/>
<path d="M6483 4359 c-6 -8 -18 -31 -28 -52 -17 -36 -19 -37 -54 -30 -20 4
-83 7 -141 5 -114 -2 -170 10 -171 36 0 9 -7 2 -16 -17 -11 -27 -17 -31 -24
-20 -5 8 -9 26 -9 41 0 39 -18 44 -22 6 -3 -30 -5 -33 -33 -28 -16 2 -50 3
-75 2 -25 -1 -110 -2 -190 -3 -160 -1 -206 -12 -214 -51 -14 -71 -16 -103 -10
-200 l7 -107 159 1 c122 0 163 -3 173 -13 28 -28 138 -342 160 -452 16 -83 16
-83 -98 -71 -164 17 -203 13 -292 -34 -74 -39 -230 -155 -230 -172 0 -10 136
-133 275 -249 206 -171 424 -373 462 -429 15 -22 17 -23 45 -8 106 54 440 357
546 494 22 30 60 67 83 83 23 16 52 45 64 64 21 34 21 36 4 63 -31 48 -107
116 -164 148 l-55 30 -1 65 c0 65 -20 155 -35 165 -5 3 -9 -4 -9 -15 0 -11 -4
-22 -9 -25 -14 -9 -25 344 -11 358 6 6 55 12 116 14 100 4 105 5 122 30 13 20
17 48 17 113 0 97 -12 124 -75 167 -39 26 -77 28 -125 5 l-36 -17 -32 39 c-17
22 -39 48 -47 58 -13 16 -18 17 -27 6z m243 -137 c28 -49 32 -80 6 -41 -19 29
-34 27 -71 -7 -24 -23 -25 -23 -39 -3 -7 10 -17 17 -22 14 -4 -3 -10 0 -12 5
-2 6 -17 13 -33 16 -31 5 -80 32 -73 40 6 6 118 -33 134 -47 10 -8 19 -1 40
31 15 22 31 39 37 37 5 -1 20 -22 33 -45z m-336 -23 c-17 -31 -18 -148 -2
-309 19 -195 27 -510 14 -510 -6 0 -13 8 -16 18 -6 20 -24 324 -33 567 -6 160
-5 173 16 219 12 27 24 47 27 43 3 -3 0 -15 -6 -28z m374 -80 c3 -17 6 -51 6
-76 0 -37 -3 -44 -17 -40 -10 3 -56 11 -103 18 -82 12 -110 22 -110 40 0 5 6
7 13 5 6 -3 34 -7 61 -10 42 -5 47 -4 36 9 -10 12 -9 15 4 15 9 0 16 4 16 9 0
5 11 12 25 15 14 4 25 11 25 17 0 7 6 6 17 -2 15 -13 16 -12 11 9 -4 12 -3 22
2 22 4 0 10 -14 14 -31z m-629 -662 c-5 -56 -5 -55 -15 -29 -10 25 -2 84 10
77 5 -3 7 -24 5 -48z m15 -546 c0 -16 -7 -35 -16 -42 -14 -11 -19 -10 -35 10
-32 39 -24 61 23 61 24 0 28 -4 28 -29z"/>
<path d="M4513 4320 c-44 -27 -86 -87 -123 -178 -31 -76 -104 -250 -162 -387
-17 -38 -44 -99 -60 -135 -17 -36 -35 -85 -40 -109 -4 -25 -17 -54 -28 -66
-21 -22 -54 -95 -142 -315 -27 -69 -70 -166 -94 -217 -61 -128 -58 -206 12
-283 62 -69 154 -77 231 -21 44 32 126 178 138 246 14 78 1 75 339 75 278 0
303 -2 332 -19 26 -16 32 -27 38 -70 22 -163 125 -283 230 -267 105 17 182
133 154 232 -8 32 -12 35 -36 29 -42 -9 -95 -9 -122 0 -14 5 -29 9 -35 10 -5
0 -27 8 -49 18 -21 9 -42 17 -47 17 -19 0 -85 49 -129 95 -30 32 -72 60 -127
86 -81 38 -82 39 -98 91 -8 28 -15 55 -15 60 0 13 30 9 95 -11 81 -25 149 -36
141 -23 -4 6 7 21 24 33 16 13 30 29 30 36 0 7 3 12 8 12 4 -1 22 2 40 6 28 6
30 10 20 23 -11 13 -9 14 16 8 28 -7 28 -7 22 31 -4 21 -3 33 1 27 16 -22 42
-24 48 -3 10 31 -15 127 -52 199 -12 24 -13 24 -13 3 0 -17 -5 -21 -25 -18
-14 1 -25 -2 -25 -7 0 -5 -4 -7 -9 -3 -6 3 -9 -7 -8 -21 3 -38 -12 -39 -66 -3
-58 38 -99 107 -74 123 12 8 10 12 -16 25 -32 17 -61 64 -72 119 l-7 33 39 -6
c21 -4 45 -9 55 -11 12 -3 19 5 28 31 13 39 37 46 64 19 23 -22 20 -101 -4
-149 -11 -22 -16 -43 -11 -48 4 -4 28 -7 52 -5 30 2 48 -2 56 -12 15 -17 -106
345 -168 504 -66 169 -120 215 -254 216 -52 0 -78 -5 -102 -20z m139 -557 c70
-175 120 -314 115 -319 -7 -8 -135 24 -182 45 l-42 18 8 59 c4 33 12 73 18 89
12 32 64 135 69 135 1 0 7 -12 14 -27z m318 -87 c0 -3 -4 -8 -10 -11 -5 -3
-10 -1 -10 4 0 6 5 11 10 11 6 0 10 -2 10 -4z"/>
<path d="M7687 4326 c-81 -22 -135 -90 -207 -262 -23 -54 -62 -144 -87 -199
-25 -55 -51 -115 -58 -134 l-12 -34 -8 49 -8 49 -18 -40 c-24 -52 -26 -140 -4
-131 14 5 14 3 2 -22 -8 -15 -20 -39 -26 -54 -8 -22 -17 -28 -41 -28 -36 0
-40 -17 -5 -26 14 -3 25 -8 25 -11 0 -2 -11 -19 -25 -37 -14 -18 -25 -36 -25
-39 0 -8 -110 -253 -183 -408 -30 -63 -59 -138 -65 -165 -21 -96 15 -185 98
-241 38 -26 94 -30 143 -10 67 29 143 140 172 254 25 97 9 94 374 91 l315 -3
19 -70 c66 -254 220 -363 350 -246 49 44 67 85 67 149 0 52 -13 95 -113 357
-35 94 -79 215 -97 270 -18 55 -39 109 -45 120 -7 11 -32 76 -55 145 -24 69
-44 126 -46 128 -1 2 -23 -10 -50 -26 -84 -49 -135 -64 -208 -60 -79 4 -77 9
-36 -129 16 -54 33 -117 39 -139 5 -21 13 -49 16 -61 l7 -23 -147 0 c-136 0
-147 1 -140 18 5 9 10 33 12 52 2 19 15 55 28 80 13 25 33 94 44 154 11 60 25
114 30 119 7 7 23 -1 45 -21 47 -41 107 -50 180 -27 78 25 160 76 164 103 4
29 -7 28 -76 -7 -79 -40 -202 -83 -202 -70 0 5 8 12 18 16 60 20 233 97 238
105 7 11 -74 236 -118 325 -39 81 -90 128 -157 142 -62 13 -63 13 -124 -3z"/>
<path d="M3323 1678 c7 -711 10 -769 39 -740 5 5 6 317 2 735 -7 718 -7 727
-27 727 -20 0 -20 -4 -14 -722z"/>
<path d="M6899 2215 c-142 -46 -249 -188 -249 -331 0 -96 49 -203 121 -268 69
-63 119 -81 229 -81 84 0 102 3 152 28 111 55 179 164 186 302 3 65 0 91 -19
140 -28 74 -102 155 -174 191 -67 32 -178 41 -246 19z m184 -149 c116 -49 154
-227 70 -326 -82 -98 -247 -92 -319 12 -24 34 -29 54 -32 113 -5 100 25 158
103 199 37 20 135 21 178 2z"/>
<path d="M4282 2199 c-65 -26 -149 -105 -182 -174 -21 -42 -25 -65 -25 -145 0
-83 4 -103 27 -153 36 -77 112 -150 185 -177 82 -31 206 -25 281 14 67 34 124
90 159 158 24 46 28 64 28 143 0 77 -4 98 -27 147 -34 72 -93 137 -160 173
-45 25 -66 30 -143 32 -73 3 -100 -1 -143 -18z m228 -139 c74 -38 119 -141 99
-229 -22 -100 -84 -153 -183 -159 -81 -5 -139 25 -181 93 -26 42 -30 58 -29
114 1 72 16 110 61 153 38 36 67 47 136 47 39 1 70 -5 97 -19z"/>
<path d="M6085 2207 c-22 -8 -51 -19 -64 -27 -46 -24 -123 -104 -149 -155 -24
-44 -27 -62 -27 -145 0 -83 3 -102 28 -151 32 -67 109 -142 175 -172 72 -34
207 -31 284 5 69 32 136 97 169 163 21 43 24 64 24 150 0 89 -3 106 -27 150
-32 63 -114 140 -176 167 -58 26 -179 34 -237 15z m194 -149 c117 -56 145
-234 51 -328 -60 -60 -142 -75 -220 -39 -91 41 -124 97 -118 199 4 81 37 139
95 169 52 26 135 26 192 -1z"/>
<path d="M3478 2203 c-17 -4 -18 -29 -18 -354 l0 -349 208 2 207 3 3 41 c5 67
-9 74 -149 74 l-119 0 -2 293 -3 292 -55 1 c-30 0 -63 -1 -72 -3z"/>
<path d="M4933 2203 c-7 -2 -13 -12 -13 -21 0 -52 142 -605 161 -629 7 -7 32
-13 59 -13 l48 0 16 48 c8 26 31 103 51 172 53 180 52 177 58 160 3 -8 31 -95
62 -193 50 -159 59 -179 82 -188 34 -13 80 -2 92 20 11 21 126 441 152 555 10
44 15 84 13 88 -3 4 -33 8 -68 8 l-63 0 -37 -142 c-20 -79 -44 -168 -53 -198
-19 -66 -17 -71 -74 149 -23 86 -46 162 -52 169 -6 8 -28 12 -61 10 l-51 -3
-52 -180 c-28 -99 -53 -187 -55 -195 -2 -8 -23 66 -47 165 -57 239 -50 225
-108 224 -27 0 -54 -3 -60 -6z"/>
<path d="M2607 2193 c-4 -3 -7 -160 -7 -348 l0 -342 178 -8 c195 -8 241 -1
304 42 98 67 104 225 10 289 l-31 21 25 24 c58 54 74 140 39 212 -42 89 -126
117 -355 117 -86 0 -160 -3 -163 -7z m353 -138 c53 -28 54 -97 1 -132 -29 -20
-47 -23 -127 -23 l-94 0 0 85 0 85 95 0 c66 0 105 -5 125 -15z m29 -309 c13
-12 21 -31 21 -53 0 -27 -6 -37 -31 -52 -38 -23 -124 -35 -190 -26 l-49 7 0
75 0 75 114 -4 c95 -2 117 -6 135 -22z"/>
<path d="M7494 2150 c9 -69 109 -461 138 -540 l23 -65 47 -3 c35 -2 52 2 66
16 10 10 38 89 66 188 27 93 52 173 56 177 4 5 11 -9 15 -30 10 -57 95 -326
107 -340 14 -17 102 -17 116 0 22 26 162 562 162 620 l0 28 -67 -3 -68 -3 -42
-165 c-23 -91 -44 -178 -48 -195 -4 -16 -8 -25 -10 -20 -2 6 -24 87 -50 180
-26 94 -52 176 -58 183 -5 7 -32 12 -63 12 l-53 0 -35 -107 c-19 -60 -44 -146
-57 -193 l-22 -84 -39 159 c-21 88 -43 177 -49 198 l-10 37 -66 0 -66 0 7 -50z"/>
</g>
</svg>
